<svg width="5059" height="5059" viewBox="0 0 5059 5059" fill="none" xmlns="http://www.w3.org/2000/svg">
<path d="M4133.96 1511.46C4059.75 1384.46 3881.82 1349.54 3735.07 1333.31L3734.17 1341.54C3510.7 1116.58 3229.47 964.548 2928.19 896.57C2810.92 788.119 2589.39 621.778 2383.05 680.043C2251.67 717.103 2132.81 810.489 2030.65 946.418C1949.06 974.85 1868.68 1009.88 1790.3 1052.27C1486.7 1216.46 1256.14 1463.65 1110.74 1750.74C939.771 1797.56 825.592 1882.57 779.561 2001.95C729.251 2132.48 828.154 2306.63 924.806 2459.64L933.144 2454.39C929.273 2602.11 944.964 2751.37 982.053 2898.14L969.144 2891.14C834.109 3141.35 868.088 3300.53 920.377 3389.99C994.196 3516.36 1146.15 3582.4 1351.43 3592.28C1548.29 3812.46 1797.59 3971.13 2069.39 4059.36C2135.93 4150.23 2208.47 4224.83 2286.14 4278.93C2422.68 4374.03 2570.59 4402.88 2713.88 4362.46C2750.94 4352.01 2787.03 4337.24 2822.18 4318.22C2921.59 4264.47 3013.12 4176.4 3095.5 4055.8C3183.31 4026.33 3269.82 3989.48 3354 3943.95C3533.44 3846.89 3687.22 3720.69 3813.2 3574.61L3815.9 3589.85C3922.9 3570.85 4030.09 3547.84 4113.96 3502.49C4177.77 3467.96 4228.03 3420.52 4254.46 3352.11C4304.52 3222.12 4267.3 3070.57 4159.27 2912.1C4239.76 2600.58 4230.03 2264.92 4116.65 1948.02C4192.43 1779.65 4202.56 1628.91 4133.96 1511.46ZM4000.73 1589.31C4023.27 1627.91 4029.93 1676.77 4021.94 1733.45C4019.28 1728.38 4016.9 1723.25 4014.17 1718.18C3976.15 1647.9 3933.5 1581.67 3887.21 1519.29C3945.52 1537.48 3984 1560.72 4000.73 1589.31ZM3878.45 1791.61C3904.37 1839.54 3927.22 1888.35 3947.37 1937.69C3890.65 2042.1 3803.56 2158.8 3688.46 2281.2C3621.52 2243.58 3537.47 2239.83 3465.05 2279.01C3452.9 2285.58 3441.77 2293.22 3431.33 2301.5C3239.44 2190.5 3020.79 2085.57 2780.95 1992.39C2527.8 1894.03 2274.9 1819.27 2036.84 1771.22C2032.52 1746.84 2024.33 1723.31 2012.57 1701.51C1987.59 1655.31 1949.1 1621.2 1904.77 1600.95C1960.08 1392 2035.62 1212.34 2126.18 1077.76C2790.93 869.489 3534.13 1154.88 3878.45 1791.61ZM2819.81 2951.6C2545.32 3111.97 2281.89 3230.53 2045.47 3310.37C2026.2 3285.67 2002.15 3265.12 1974.76 3249.96C1947.36 3234.81 1917.2 3225.36 1886.09 3222.2C1852.33 3072.27 1827.64 2911.63 1813.97 2744.12C1794.25 2502.89 1799.03 2264.99 1823.75 2042.86C1857.24 2040.92 1889.88 2031.66 1919.37 2015.72C1959.91 1993.8 1991.1 1961.37 2011.79 1923.71C2239.46 1970 2481.91 2041.91 2725.41 2136.53C2959.03 2227.3 3168.18 2328.84 3349.17 2434.13C3338.78 2482.6 3344.24 2533.15 3364.79 2578.3C3208.03 2704.6 3025.79 2831.2 2819.81 2951.6ZM2425.23 828.833C2474.05 815.049 2535.74 825.262 2604.31 856.547C2511.97 854.383 2419.07 859.688 2326.55 873.4C2358.52 853.703 2391.41 838.378 2425.23 828.833ZM1863.9 1188.35C1874.01 1182.88 1884.28 1178.03 1894.45 1172.83C1835.21 1294.88 1785.25 1434.81 1746.06 1588.43C1729.58 1593 1713.67 1599.39 1698.62 1607.5C1653.39 1631.96 1619.82 1669.46 1599.57 1712.77C1568.42 1710.98 1537.64 1709.59 1507.6 1709.04C1436.17 1707.75 1369.32 1710.23 1307.07 1716.11C1438.84 1501.03 1626.63 1316.66 1863.9 1188.35ZM923.601 2057.94C939.836 2015.79 974.805 1979.82 1025.31 1950.53C996.204 2033.58 974.096 2118.97 958.513 2205.71C925.122 2135.03 913.057 2085.24 923.601 2057.94ZM1217.87 1884.77C1300.25 1869.15 1396.74 1861.65 1505.12 1863.62C1531.07 1864.09 1557.6 1865.22 1584.37 1866.65C1589.04 1885.41 1595.8 1903.92 1605.42 1921.71C1622.14 1952.63 1644.99 1978.01 1671.49 1997.66C1643.76 2235.54 1638.55 2492.13 1660.14 2756.45C1674.57 2933.13 1700.3 3101.95 1735.76 3259.4C1680.17 3296.01 1645.09 3353.42 1635.03 3415.67C1557.6 3428.33 1486.06 3435.2 1421.24 3436.48C1363.38 3365.33 1311.07 3288.15 1265.87 3204.55C1036.51 2780.35 1034.65 2293.44 1217.87 1884.77ZM1053.58 3312.09C1017.93 3251.05 1024.29 3173.61 1047.26 3099.07C1071.19 3159.55 1098.47 3219.32 1130.17 3277.95C1156.03 3325.77 1184.05 3371.64 1213.82 3415.83C1137.17 3395.55 1082.05 3360.85 1053.58 3312.09ZM1664.5 3570.71C1707.98 3644.32 1786.15 3685.63 1866.6 3684.76C1888.11 3737.98 1911.85 3790.26 1937.74 3841.48C1799.4 3775.9 1671.96 3689.35 1559.93 3584.88C1593.9 3581.27 1628.73 3576.59 1664.5 3570.71ZM2671.7 4213.59C2572.95 4241.49 2472.81 4220.77 2374.1 4152.01C2361.42 4143.16 2349.03 4132.81 2336.61 4122.6C2500.86 4147.03 2669.32 4146.36 2836.19 4119.61C2783.09 4165.75 2727.73 4197.78 2671.7 4213.59ZM2165.06 3927.33C2108.66 3842.83 2057.15 3743.25 2011.78 3631.32C2063.68 3588.12 2092.94 3524.9 2094.7 3459.4C2300.11 3389.33 2520.33 3292.67 2746.8 3170.17C2796.85 3143.11 2847.29 3114.74 2897.85 3085.2C3112.61 2959.63 3305.93 2826.28 3473.81 2691.09C3538.79 2722.95 3617.44 2724.21 3685.8 2687.24C3693.14 2683.28 3700.15 2678.91 3706.88 2674.3C3825.44 2767.2 3920.37 2858.88 3989.41 2944.82C3878.11 3301.5 3633.83 3616.69 3280.45 3807.8C2925.39 3999.83 2525.86 4031.15 2165.06 3927.33ZM4110.41 3296.03C4090.95 3346.56 4031.81 3378.64 3942.05 3403.88C4002.29 3312 4053.19 3214.28 4093.97 3112.2C4123.71 3182.35 4130.13 3244.92 4110.41 3296.03ZM4034.73 2758.35C3968.22 2687.65 3888.83 2616.5 3798.29 2546.12C3811.64 2498.52 3809.35 2447.84 3791.76 2401.57C3878.87 2310.36 3952.75 2220.28 4011.86 2133C4064.75 2340.54 4070.83 2553.62 4034.73 2758.35Z" fill="#0E36A5"/>
</svg>
